<svg xmlns="http://www.w3.org/2000/svg" width="70.5" height="70.5" viewBox="0 0 70.5 70.5">
  <g id="business" transform="translate(0 -1)">
    <path id="Path_64310" data-name="Path 64310" d="M63.777,12.5,57.794,2.526a3.146,3.146,0,0,0-5.394,0L46.416,12.5a2.918,2.918,0,0,0,2.5,4.42h1.631V32.839h2.274V14.645h-3.9a.643.643,0,0,1-.551-.974L54.35,3.7a.909.909,0,0,1,1.494,0l5.983,9.973a.643.643,0,0,1-.551.974h-3.9V35.113h2.274V16.919h1.631a2.918,2.918,0,0,0,2.5-4.42Z" transform="translate(6.306)"/>
    <path id="Path_64311" data-name="Path 64311" d="M8.35,11.7a.909.909,0,0,1,1.494,0l5.983,9.973a.643.643,0,0,1-.551.974h-3.9V34.016h2.274v-9.1h1.631a2.917,2.917,0,0,0,2.5-4.419l-5.983-9.973a3.145,3.145,0,0,0-5.394,0L.416,20.5a2.918,2.918,0,0,0,2.5,4.42H4.548V39.7H6.823V22.645h-3.9a.643.643,0,0,1-.551-.974Z" transform="translate(0 1.097)"/>
    <path id="Path_64312" data-name="Path 64312" d="M32.548,43.439V41H30.274v2.439a3.233,3.233,0,0,0-.48,5.983l2.216,1.109a.971.971,0,0,1-.433,1.84h-.331a.973.973,0,0,1-.972-.971V50.1H28v1.3a3.239,3.239,0,0,0,2.274,3.08v2.439h2.274V54.48a3.233,3.233,0,0,0,.48-5.983l-2.216-1.109a.971.971,0,0,1,.433-1.84h.331a.973.973,0,0,1,.972.971v.166h2.274v-.166a3.239,3.239,0,0,0-2.274-3.08Z" transform="translate(3.839 5.484)"/>
    <path id="Path_64313" data-name="Path 64313" d="M56.9,36.29H44.387V32.879a3.407,3.407,0,0,0-2.274-3.2V22.645h-3.9a.643.643,0,0,1-.551-.974L43.64,11.7a.909.909,0,0,1,1.494,0l5.983,9.973a.643.643,0,0,1-.551.974h-3.9V35.153h2.274V24.919h1.631a2.917,2.917,0,0,0,2.5-4.419l-5.983-9.973a3.145,3.145,0,0,0-5.394,0L35.707,20.5a2.918,2.918,0,0,0,2.5,4.42h1.631v4.548H27.331a3.415,3.415,0,0,0-3.411,3.411V36.29H11.411A3.415,3.415,0,0,0,8,39.7v27.29A3.415,3.415,0,0,0,11.411,70.4H56.9a3.415,3.415,0,0,0,3.411-3.411V39.7A3.415,3.415,0,0,0,56.9,36.29Zm-30.7-3.411a1.138,1.138,0,0,1,1.137-1.137H40.976a1.138,1.138,0,0,1,1.137,1.137V36.29H26.194Zm19.331,21.6a14.771,14.771,0,0,0,12.508-6.941V66.992A1.138,1.138,0,0,1,56.9,68.129H11.411a1.138,1.138,0,0,1-1.137-1.137V47.543a14.771,14.771,0,0,0,12.508,6.941h5.685V52.21H22.782A12.523,12.523,0,0,1,10.274,39.7a1.138,1.138,0,0,1,1.137-1.137H56.9A1.138,1.138,0,0,1,58.032,39.7,12.523,12.523,0,0,1,45.524,52.21H39.839v2.274Z" transform="translate(1.097 1.097)"/>
    <path id="Path_64314" data-name="Path 64314" d="M48,57h2.274v2.274H48Z" transform="translate(6.581 7.677)"/>
    <path id="Path_64315" data-name="Path 64315" d="M40,57h2.274v2.274H40Z" transform="translate(5.484 7.677)"/>
    <path id="Path_64316" data-name="Path 64316" d="M44,57h2.274v2.274H44Z" transform="translate(6.032 7.677)"/>
    <path id="Path_64317" data-name="Path 64317" d="M4,38H6.274v2.274H4Z" transform="translate(0.548 5.073)"/>
    <path id="Path_64318" data-name="Path 64318" d="M4,42H6.274v2.274H4Z" transform="translate(0.548 5.621)"/>
    <path id="Path_64319" data-name="Path 64319" d="M18.918,17.919h1.631V28.153h2.274V15.645h-3.9a.643.643,0,0,1-.551-.974L24.35,4.7a.909.909,0,0,1,1.494,0l5.983,9.973a.643.643,0,0,1-.551.974h-3.9V28.153h2.274V17.919h1.631a2.917,2.917,0,0,0,2.5-4.419L27.794,3.527a3.145,3.145,0,0,0-5.394,0L16.416,13.5a2.918,2.918,0,0,0,2.5,4.42Z" transform="translate(2.194 0.137)"/>
    <path id="Path_64320" data-name="Path 64320" d="M56,33h2.274v2.274H56Z" transform="translate(7.677 4.387)"/>
    <path id="Path_64321" data-name="Path 64321" d="M56,37h2.274v2.274H56Z" transform="translate(7.677 4.935)"/>
    <path id="Path_64322" data-name="Path 64322" d="M18.823,53H14.274A2.276,2.276,0,0,0,12,55.274v2.274a2.276,2.276,0,0,0,2.274,2.274h4.548A2.276,2.276,0,0,0,21.1,57.548V55.274A2.276,2.276,0,0,0,18.823,53Zm-4.548,4.548V55.274h4.548v2.274Z" transform="translate(1.645 7.129)"/>
  </g>
</svg>
