<svg xmlns="http://www.w3.org/2000/svg" xmlns:xlink="http://www.w3.org/1999/xlink" width="85.65" height="72.49" viewBox="0 0 85.65 72.49">
  <defs>
    <clipPath id="clip-path">
      <rect id="Rectangle_23118" data-name="Rectangle 23118" width="85.65" height="72.49" transform="translate(0 0)" fill="none"/>
    </clipPath>
  </defs>
  <g id="Group_49701" data-name="Group 49701" transform="translate(0 0.002)">
    <g id="Group_49701-2" data-name="Group 49701" transform="translate(0 -0.002)" clip-path="url(#clip-path)">
      <path id="Path_64303" data-name="Path 64303" d="M85.592,1122.384a3.885,3.885,0,0,0-1.072-2.008,4.808,4.808,0,0,0-2.32-1.342,4.16,4.16,0,0,0-3.348.68,28.459,28.459,0,0,0-3.162,2.813c-3,2.9-7.489,7.235-12.265,8.241l-.573-.391q-.067-.047-.137-.093l-.009-.006,0,0-.019-.013-.023-.015-.011-.007a6.43,6.43,0,0,0-1.347-.645,11.818,11.818,0,0,0-3.239-.528,13.516,13.516,0,0,1-1.61-.164,60.846,60.846,0,0,1-12.76-4.153,50.068,50.068,0,0,0-9.287-3.175,25.128,25.128,0,0,0-11.088.257c-3.283.769-5.833,2.993-8.083,4.955a21.706,21.706,0,0,1-3.646,2.786L11,1128.193a1.281,1.281,0,0,0-1.593-.712L.867,1130.4a1.281,1.281,0,0,0-.769,1.7l9.923,23.844a1.281,1.281,0,0,0,1.866.591l7.872-4.966a1.281,1.281,0,0,0,.5-1.584l-.6-1.42c3.443-2.064,8.493-3.338,12.862-1.816,1.056.368,2.11.754,3.226,1.162,5.1,1.867,10.379,3.8,15.3,3.8,3.058,0,6.47-1.986,10.42-4.286.922-.537,1.875-1.092,2.84-1.63,6.7-3.734,10.46-6.051,12.181-7.513,1.67-1.418,3.409-4.422,4.943-7.072.7-1.205,1.357-2.344,1.885-3.109l.165-.238a13.937,13.937,0,0,0,1.944-3.422,4.19,4.19,0,0,0,.175-2.057M11.8,1153.562,2.989,1132.38l6.122-2.09,8.361,19.7ZM81.367,1126.4l-.167.241c-.586.849-1.27,2.03-1.994,3.281-1.359,2.348-3.051,5.27-4.384,6.4-2.059,1.748-7.7,4.962-11.77,7.227-.987.55-1.95,1.111-2.882,1.654-3.478,2.025-6.764,3.939-9.131,3.939-4.465,0-9.525-1.851-14.419-3.641-1.076-.394-2.189-.8-3.263-1.175a16.408,16.408,0,0,0-8.9-.371,20.879,20.879,0,0,0-5.847,2.25L12.6,1131.933a22.157,22.157,0,0,0,4.318-3.217c2.124-1.853,4.32-3.768,6.983-4.392,7.744-1.813,12.626.218,18.807,2.789a63.838,63.838,0,0,0,13.268,4.3,15.611,15.611,0,0,0,1.923.2,9.54,9.54,0,0,1,2.557.39,3.858,3.858,0,0,1,.831.4,1.862,1.862,0,0,1,.962,1.706c-.109,1.8-2.928,2.007-3.79,2.029a35.5,35.5,0,0,1-8.575-1.177,33.809,33.809,0,0,0-6.78-1.05,9.756,9.756,0,0,0-6.409,2.028,1.281,1.281,0,1,0,1.586,2.011c2.911-2.3,6.682-1.459,11.048-.489A39.942,39.942,0,0,0,58,1138.71q.26,0,.522-.006a8.113,8.113,0,0,0,4.345-1.166,4.173,4.173,0,0,0,1.845-4.446,20.458,20.458,0,0,0,6.674-3.4,58.616,58.616,0,0,0,6.084-5.321,28.2,28.2,0,0,1,2.826-2.539,1.763,1.763,0,0,1,2.38.323c.821.852.416,1.763-1.308,4.251" transform="translate(0 -1084.245)"/>
      <path id="Path_64304" data-name="Path 64304" d="M1047.115,23.007h6.834l15.773,15.63a1.281,1.281,0,0,0,1.8,0l15.736-15.593,5.93-.017a1.281,1.281,0,0,0,0-2.562h0l-3.4.01a13.7,13.7,0,0,0,1.931-2.938,12.493,12.493,0,0,0,1.205-4.28,11.718,11.718,0,0,0-2.273-8.143h0A13.007,13.007,0,0,0,1086,1.268,11.984,11.984,0,0,0,1079.972.02a11.277,11.277,0,0,0-5.641,1.944,14.678,14.678,0,0,0-3.706,3.671,14.676,14.676,0,0,0-3.706-3.671A11.277,11.277,0,0,0,1061.276.02a11.985,11.985,0,0,0-6.029,1.248,13.009,13.009,0,0,0-4.645,3.846,11.718,11.718,0,0,0-2.273,8.143,12.493,12.493,0,0,0,1.205,4.28,13.689,13.689,0,0,0,1.906,2.908h-4.325a1.281,1.281,0,1,0,0,2.562m23.509,12.917-13.035-12.917h4.641a1.281,1.281,0,0,0,1.208-.855l2.386-6.766,4.658,13.037a1.281,1.281,0,0,0,1.182.85h.025a1.281,1.281,0,0,0,1.188-.8l3.961-9.871,1.8,3.74a1.277,1.277,0,0,0,1.159.727l3.82-.011Zm-16.479-16.33,0,0c-3.792-3.725-4.4-9.046-1.488-12.94a10.2,10.2,0,0,1,7.938-4.089q.263,0,.525.016c2.339.147,5.694,1.319,8.4,6.067a1.281,1.281,0,0,0,2.227,0c2.7-4.748,6.056-5.92,8.4-6.067A10.123,10.123,0,0,1,1088.6,6.65c2.916,3.894,2.3,9.216-1.488,12.94l0,0-.9.891-5.612.016-2.7-5.636a1.281,1.281,0,0,0-2.344.077l-3.786,9.437-4.736-13.253a1.281,1.281,0,0,0-1.206-.85h0a1.281,1.281,0,0,0-1.205.855l-3.285,9.313H1055Z" transform="translate(-1013.418 0.002)"/>
    </g>
  </g>
</svg>
