<svg xmlns="http://www.w3.org/2000/svg" width="73.995" height="74.011" viewBox="0 0 73.995 74.011">
  <g id="layer1" transform="translate(-0.529 -280.593)">
    <path id="path2398" d="M47.4,281.821v3.669l-6.692-4.661a1.247,1.247,0,0,0-1.412,0L15.34,297.507a1.234,1.234,0,0,0-.311,1.713l2.987,4.3a1.233,1.233,0,0,0,1.72.308l3-2.088V316.37a1.233,1.233,0,1,0,2.467,0V300.019l14.795-10.3,14.8,10.307V316.37a1.233,1.233,0,1,0,2.467,0V301.739l3,2.086a1.234,1.234,0,0,0,1.713-.308l2.994-4.3a1.234,1.234,0,0,0-.311-1.713l-7.392-5.148V281.821a1.233,1.233,0,0,0-1.238-1.229H48.571A1.241,1.241,0,0,0,47.4,281.821Zm2.467,1.229H54.8v7.593l-4.933-3.435Zm-9.859.3,22.231,15.477-1.575,2.267L40.705,287.2a1.233,1.233,0,0,0-1.412,0L19.336,301.094l-1.575-2.267ZM33.83,302.806a1.234,1.234,0,0,0-1.228,1.238v12.326a1.233,1.233,0,1,0,2.457,0v-11.1h9.869v11.1a1.235,1.235,0,0,0,2.469,0V304.045a1.234,1.234,0,0,0-1.231-1.238ZM68.8,311.685a5.821,5.821,0,0,0-4.129,1.705l-7.231,7.231a1.233,1.233,0,1,0,1.744,1.744l7.231-7.231a3.34,3.34,0,0,1,4.772,0,2.812,2.812,0,0,1,.867,2.235,5.192,5.192,0,0,1-1,2.7c-2.357,3.343-7.638,10.982-10.464,15.075-2.166,3.137-4.794,4.666-8.257,4.666H31.364a7.114,7.114,0,0,0-4.907,1.982L10.031,325.365a1.226,1.226,0,0,0-1.739,0l-7.4,7.4a1.233,1.233,0,0,0,0,1.749L20.63,354.244a1.233,1.233,0,0,0,1.739,0l7.4-7.4a1.233,1.233,0,0,0,0-1.739l-1.585-1.585a4.2,4.2,0,0,1,3.18-1.243H52.33a12.259,12.259,0,0,0,10.286-5.731c2.825-4.091,8.112-11.741,10.449-15.055a7.538,7.538,0,0,0,1.455-4.03,5.445,5.445,0,0,0-1.59-4.069A5.826,5.826,0,0,0,68.8,311.685Zm-44.835,8.39a13.228,13.228,0,0,0-9.693,4.261,1.233,1.233,0,1,0,1.71,1.778c2.1-2.017,4.086-3.572,7.983-3.572h25.9a3.7,3.7,0,0,1,0,7.4H36.3a1.233,1.233,0,1,0,0,2.467H49.863a6.167,6.167,0,1,0,0-12.333Zm-14.8,7.913,17.991,17.989L21.5,351.631,3.513,333.642Z" transform="translate(0 0)"/>
  </g>
</svg>
