<svg xmlns="http://www.w3.org/2000/svg" width="68.517" height="57.811" viewBox="0 0 68.517 57.811">
  <g id="liability" transform="translate(0 -40.001)">
    <path id="Path_64305" data-name="Path 64305" d="M31.659,43.135,21.452,40.085a2.008,2.008,0,0,0-1.5.143L8.165,46.373v-.216a2.007,2.007,0,0,0-2.007-2.007H2.007a2.007,2.007,0,0,0,0,4.015H4.151V70.245H2.007a2.007,2.007,0,0,0,0,4.015H6.158a2.007,2.007,0,0,0,2.007-2.007V70.245c19.387-.039,18.838.093,19.888-.112a18.063,18.063,0,1,0,3.605-27ZM23.553,58.2h-4.3l3.261-3.763,1.364.359A18.09,18.09,0,0,0,23.553,58.2ZM8.165,50.9l12.918-6.735,7,2.091a18.109,18.109,0,0,0-3.008,4.7l-2.745-.722a2.006,2.006,0,0,0-2.028.627l-6.958,8.029a2.009,2.009,0,0,0,1.517,3.322H26.9a2.007,2.007,0,0,1,0,4.015H8.165ZM41.617,72.252a13.925,13.925,0,0,1-10.051-4.231,6.028,6.028,0,0,0-4-9.782A14.05,14.05,0,1,1,41.617,72.252Z"/>
    <path id="Path_64306" data-name="Path 64306" d="M279.673,110.518c-1.657-1.292-3.856-1.557-4.269-2.3a.665.665,0,0,1,.3-.729,1.863,1.863,0,0,1,1.742.127,2.007,2.007,0,0,0,2.722-2.951,5,5,0,0,0-1.893-1.066,2.006,2.006,0,0,0-4.012.048v.085a4.647,4.647,0,0,0-2.372,6.432,6.5,6.5,0,0,0,3.7,2.736c.8.318,2.183.807,2.086,1.67a1.393,1.393,0,0,1-.79,1.024,3.491,3.491,0,0,1-2.787-.422,2.007,2.007,0,0,0-2.2,3.36,7.63,7.63,0,0,0,2.358.989v.016a2.007,2.007,0,1,0,4.014,0v-.173A5.079,5.079,0,0,0,279.673,110.518Z" transform="translate(-234.732 -53.387)"/>
    <path id="Path_64307" data-name="Path 64307" d="M265.509,345.053l-2.251,2.251v-9.346a2.007,2.007,0,1,0-4.014,0V347.3l-2.251-2.251a2.007,2.007,0,0,0-2.839,2.839l5.677,5.678a2.007,2.007,0,0,0,2.839,0l5.677-5.678a2.007,2.007,0,0,0-2.838-2.839Z" transform="translate(-219.633 -256.345)"/>
    <path id="Path_64308" data-name="Path 64308" d="M420.878,309.074a2.008,2.008,0,0,0-2.458,1.419l-.824,3.075-4.672-8.094a2.007,2.007,0,1,0-3.476,2.007l4.672,8.094-3.074-.824a2.007,2.007,0,0,0-1.039,3.878l7.755,2.078a2.007,2.007,0,0,0,2.458-1.419l2.078-7.756A2.007,2.007,0,0,0,420.878,309.074Z" transform="translate(-353.848 -229.077)"/>
    <path id="Path_64309" data-name="Path 64309" d="M121.3,314.751l-3.074.824,4.672-8.094a2.007,2.007,0,1,0-3.476-2.007l-4.672,8.094-.824-3.075a2.007,2.007,0,1,0-3.878,1.039l2.078,7.756a2.007,2.007,0,0,0,2.458,1.419l7.755-2.078a2.007,2.007,0,0,0-1.039-3.878Z" transform="translate(-95.259 -229.077)"/>
  </g>
</svg>
