<svg xmlns="http://www.w3.org/2000/svg" width="77.893" height="70.025" viewBox="0 0 77.893 70.025">
  <g id="service" transform="translate(0 -19.9)">
    <g id="Group_49700" data-name="Group 49700" transform="translate(0 19.9)">
      <path id="Path_64302" data-name="Path 64302" d="M76.094,49.752l-4.211-.4a21.907,21.907,0,0,0-2.056-4.863L72.5,41.271a1.973,1.973,0,0,0-.119-2.649L67.119,33.3a1.977,1.977,0,0,0-2.669-.138l-3.222,2.669a22.721,22.721,0,0,0-4.844-2.056l-.4-4.191a1.977,1.977,0,0,0-1.977-1.779H47.448V21.877a1.977,1.977,0,0,0-3.954,0v9.885H36.021a10.292,10.292,0,0,0-8.145,4.033L19.73,46.53,6.03,50.266A8.192,8.192,0,0,0,0,58.155v5.239a8.2,8.2,0,0,0,8.2,8.145H9.272a10.333,10.333,0,0,0,19.948,0H43.494V87.948a1.977,1.977,0,1,0,3.954,0V83.2h6.564a1.979,1.979,0,0,0,1.977-1.8l.4-4.211a22.812,22.812,0,0,0,4.863-2.036l3.222,2.669a1.972,1.972,0,0,0,2.649-.119l5.318-5.318a2,2,0,0,0,.119-2.669L69.886,66.5a23.158,23.158,0,0,0,2.056-4.844l4.152-.4a1.994,1.994,0,0,0,1.8-1.977V51.71A1.99,1.99,0,0,0,76.094,49.752ZM19.236,75.236a6.386,6.386,0,1,1,6.386-6.386A6.4,6.4,0,0,1,19.236,75.236Zm24.258-7.671h-14a10.336,10.336,0,0,0-20.521,0H8.185a4.219,4.219,0,0,1-4.251-4.191V58.155a4.271,4.271,0,0,1,3.124-4.073l14.353-3.914a1.929,1.929,0,0,0,1.048-.712l8.58-11.249a6.283,6.283,0,0,1,5-2.471h7.453ZM47.448,47.1a8.84,8.84,0,1,1,0,16.785ZM73.939,57.463h0l-3.756.356a1.976,1.976,0,0,0-1.74,1.542,18.739,18.739,0,0,1-2.629,6.208,1.961,1.961,0,0,0,.138,2.333l2.412,2.926L65.6,73.595,62.67,71.2a1.959,1.959,0,0,0-2.353-.119,18.033,18.033,0,0,1-6.188,2.61,1.953,1.953,0,0,0-1.542,1.74l-.356,3.8H47.448V67.98A12.8,12.8,0,0,0,53,42.991a12.545,12.545,0,0,0-5.555,0V31.782h4.765l.376,3.776A1.976,1.976,0,0,0,54.13,37.3a19.117,19.117,0,0,1,6.208,2.61,1.961,1.961,0,0,0,2.333-.138l2.906-2.412L68.3,40.1,65.873,43.05a1.959,1.959,0,0,0-.119,2.353,18.033,18.033,0,0,1,2.61,6.188,1.976,1.976,0,0,0,1.76,1.542l3.816.376Z" transform="translate(0 -19.9)"/>
    </g>
  </g>
</svg>
